<svg width="1024" height="1024" viewBox="0 0 1024 1024" fill="none" xmlns="http://www.w3.org/2000/svg">
  <defs>
    <linearGradient id="bg" x1="140" y1="120" x2="880" y2="920" gradientUnits="userSpaceOnUse">
      <stop stop-color="#0F766E"/>
      <stop offset="0.55" stop-color="#0B5563"/>
      <stop offset="1" stop-color="#111827"/>
    </linearGradient>
    <radialGradient id="glow" cx="0" cy="0" r="1" gradientUnits="userSpaceOnUse" gradientTransform="translate(780 250) rotate(135) scale(320)">
      <stop stop-color="#FDE68A"/>
      <stop offset="1" stop-color="#FDE68A" stop-opacity="0"/>
    </radialGradient>
    <filter id="shadow" x="124" y="202" width="776" height="574" filterUnits="userSpaceOnUse" color-interpolation-filters="sRGB">
      <feDropShadow dx="0" dy="26" stdDeviation="28" flood-color="#0F172A" flood-opacity="0.22"/>
    </filter>
  </defs>

  <rect x="48" y="48" width="928" height="928" rx="232" fill="url(#bg)"/>
  <circle cx="780" cy="250" r="220" fill="url(#glow)"/>

  <g filter="url(#shadow)">
    <path d="M178 548C280 402 388 324 512 324C636 324 744 402 846 548" stroke="#ECFEFF" stroke-width="54" stroke-linecap="round"/>
    <path d="M250 602C336 482 424 424 512 424C600 424 688 482 774 602" stroke="#67E8F9" stroke-opacity="0.9" stroke-width="34" stroke-linecap="round"/>
    <path d="M312 470H720" stroke="#FDBA74" stroke-width="34" stroke-linecap="round"/>
    <path d="M368 470L290 392" stroke="#FED7AA" stroke-width="22" stroke-linecap="round"/>
    <path d="M392 672C428 594 468 554 512 554C556 554 596 594 632 672" stroke="#E2E8F0" stroke-width="28" stroke-linecap="round"/>
    <circle cx="512" cy="564" r="84" fill="#F8FAFC"/>
    <path d="M458 564C486 520 538 520 566 564C538 626 486 626 458 564Z" fill="#0F766E"/>
    <circle cx="486" cy="538" r="20" fill="#E2F8F5" fill-opacity="0.75"/>
  </g>
</svg>
